<svg width="32" height="32" viewBox="0 0 32 32" fill="none" xmlns="http://www.w3.org/2000/svg">
<path d="M15.9993 2.66602C8.63535 2.66602 2.66602 8.63535 2.66602 15.9993C2.66602 23.3633 8.63535 29.3327 15.9993 29.3327C23.3633 29.3327 29.3327 23.3633 29.3327 15.9993C29.3327 8.63535 23.3633 2.66602 15.9993 2.66602ZM19.3727 16.7061L15.3727 20.7061C15.1781 20.9007 14.922 20.9993 14.666 20.9993C14.41 20.9993 14.154 20.9021 13.9593 20.7061C13.5686 20.3154 13.5686 19.682 13.9593 19.2913L17.2526 15.998L13.9593 12.7048C13.5686 12.3141 13.5686 11.6807 13.9593 11.29C14.35 10.8994 14.9834 10.8994 15.374 11.29L19.374 15.29C19.7634 15.6834 19.7634 16.3154 19.3727 16.7061Z" fill="#2684FF" fill-opacity="0.8"/>
</svg>
