<svg width="32" height="32" viewBox="0 0 32 32" fill="none" xmlns="http://www.w3.org/2000/svg">
<path d="M29.332 15.9993C29.332 8.63535 23.3627 2.66602 15.9987 2.66602C8.6347 2.66602 2.66537 8.63535 2.66537 15.9993C2.66537 23.3633 8.6347 29.3327 15.9987 29.3327C23.3627 29.3327 29.332 23.3633 29.332 15.9993ZM15.292 19.3727L11.292 15.3727C11.0973 15.1781 10.9987 14.922 10.9987 14.666C10.9987 14.41 11.096 14.154 11.292 13.9593C11.6827 13.5686 12.316 13.5686 12.7067 13.9593L16 17.2526L19.2933 13.9593C19.684 13.5686 20.3173 13.5686 20.708 13.9593C21.0987 14.35 21.0987 14.9834 20.708 15.374L16.708 19.374C16.3147 19.7634 15.6827 19.7634 15.292 19.3727Z" fill="#2684FF" fill-opacity="0.8"/>
</svg>
